<svg viewBox="0 0 800 800" xmlns="http://www.w3.org/2000/svg"><path d="M393.18947919694523,697.0330292768142 L393.15376233935274,-46.50331999388163 M393.18947919694523,697.0330292768142 L270.470704846701,767.7982414501314 M393.15376233935274,-46.50331999388163 L269.7907230671628,23.88594420989557 M270.470704846701,767.7982414501314 L269.7907230671628,23.88594420989557 M393.18947919694523,697.0330292768142 L394.8757721237485,696.2575631767934 M394.8757721237485,696.2575631767934 L396.81896779365263,695.7179306013672 M396.81896779365263,695.7179306013672 L398.9216303116365,695.441177243852 M398.9216303116365,695.441177243852 L401.0783696883635,695.441177243852 M401.0783696883635,695.441177243852 L403.1810322063474,695.7179306013672 M403.1810322063474,695.7179306013672 L405.1242278762515,696.2575631767934 M405.1242278762515,696.2575631767934 L406.81052080305477,697.0330292768142 M393.15376233935274,-46.50331999388163 L394.848899097955,-47.27466225544168 M394.848899097955,-47.27466225544168 L396.80228561102984,-47.811425075327804 M396.80228561102984,-47.811425075327804 L398.91597507516474,-48.086706647215806 M398.91597507516474,-48.086706647215806 L401.0840249248352,-48.086706647215806 M401.0840249248352,-48.086706647215806 L403.19771438897016,-47.811425075327804 M403.19771438897016,-47.811425075327804 L405.151100902045,-47.27466225544168 M405.151100902045,-47.27466225544168 L406.8462376606472,-46.50331999388163 M406.81052080305477,697.0330292768142 L406.8462376606472,-46.50331999388163 M400,708.8291973337099 L398.4845338772186,707.7578506031064 M398.4845338772186,707.7578506031064 L397.0450811750427,706.3457120025296 M397.0450811750427,706.3457120025296 L395.75380812731464,704.6635864023699 M395.75380812731464,704.6635864023699 L394.6754384391341,702.7958005887938 M394.6754384391341,702.7958005887938 L393.8640489686643,700.8360006075135 M393.8640489686643,700.8360006075135 L393.36030600101026,698.8824284366005 M393.36030600101026,698.8824284366005 L393.18947919694523,697.0330292768142 M400,708.8291973337099 L277.2880361705588,779.6062056750841 M277.2880361705588,779.6062056750841 L275.7724006569913,778.5330112385125 M275.7724006569913,778.5330112385125 L274.3324452399319,777.1189202703529 M274.3324452399319,777.1189202703529 L273.04036134604246,775.4348355181396 M273.04036134604246,775.4348355181396 L271.9609133170272,773.5651819581713 M271.9609133170272,773.5651819581713 L271.1482320587955,771.6036992674325 M271.1482320587955,771.6036992674325 L270.6430486098649,769.6487137467648 M270.6430486098649,769.6487137467648 L270.470704846701,767.7982414501314 M400,-50.54862768281447 L398.4764205667577,-51.21859019690095 M398.4764205667577,-51.21859019690095 L397.02928614454413,-51.45615839729976 M397.02928614454413,-51.45615839729976 L395.73116765267685,-51.249431052565456 M395.73116765267685,-51.249431052565456 L394.6471427339672,-50.608860185757976 M394.6471427339672,-50.608860185757976 L393.8315717714556,-49.56653767426616 M393.8315717714556,-49.56653767426616 L393.3253196795001,-48.17474344929866 M393.3253196795001,-48.17474344929866 L393.15376233935274,-46.50331999388163 M400,-50.54862768281447 L276.6300631741542,19.844432487786435 M276.6300631741542,19.844432487786435 L275.10665804918824,19.172822989397275 M275.10665804918824,19.172822989397275 L273.66003476631477,18.933894214006386 M273.66003476631477,18.933894214006386 L272.36273860351344,19.139615597386523 M272.36273860351344,19.139615597386523 L271.279805895917,19.779585479513116 M271.279805895917,19.779585479513116 L270.4655422696182,20.821742114231085 M270.4655422696182,20.821742114231085 L269.96074707054714,22.21381383793704 M269.96074707054714,22.21381383793704 L269.7907230671628,23.88594420989557 M270.470704846701,767.7982414501314 L269.1228311948884,768.7726152366204 M269.1228311948884,768.7726152366204 L268.1840037312934,769.8955014902065 M268.1840037312934,769.8955014902065 L267.70131034844206,771.1105986346518 M267.70131034844206,771.1105986346518 L267.6989825889857,772.3569966678883 M267.6989825889857,772.3569966678883 L268.17716214484835,773.5721782593882 M268.17716214484835,773.5721782593882 L269.11188869538984,774.6952166818216 M269.11188869538984,774.6952166818216 L270.45631110349024,775.6697802194936 M269.7907230671628,23.88594420989557 L268.4357640676327,24.85514668135977 M268.4357640676327,24.85514668135977 L267.4919970056091,25.97207359010082 M267.4919970056091,25.97207359010082 L267.0067576061843,27.180722220525354 M267.0067576061843,27.180722220525354 L267.00440534142143,28.42050585225479 M267.00440534142143,28.42050585225479 L267.48508339489536,29.629238922577883 M267.48508339489536,29.629238922577883 L268.42470637182237,30.74631798727063 M268.42470637182237,30.74631798727063 L269.7761777949406,31.715710193837708 M270.45631110349024,775.6697802194936 L269.7761777949406,31.715710193837708 M400,708.8291973337099 L400,708.8291973337099 M400,708.8291973337099 L401.5154661227814,707.7578506031064 M401.5154661227814,707.7578506031064 L402.95491882495736,706.3457120025296 M402.95491882495736,706.3457120025296 L404.2461918726854,704.6635864023699 M404.2461918726854,704.6635864023699 L405.3245615608659,702.7958005887938 M405.3245615608659,702.7958005887938 L406.13595103133576,700.8360006075135 M406.13595103133576,700.8360006075135 L406.6396939989898,698.8824284366005 M406.6396939989898,698.8824284366005 L406.81052080305477,697.0330292768142 M400,-50.54862768281447 L400,-50.54862768281447 M400,-50.54862768281447 L401.5235794332422,-51.21859019690095 M401.5235794332422,-51.21859019690095 L402.97071385545587,-51.45615839729976 M402.97071385545587,-51.45615839729976 L404.26883234732315,-51.249431052565456 M404.26883234732315,-51.249431052565456 L405.35285726603274,-50.608860185757976 M405.35285726603274,-50.608860185757976 L406.16842822854437,-49.56653767426616 M406.16842822854437,-49.56653767426616 L406.6746803204998,-48.17474344929866 M406.6746803204998,-48.17474344929866 L406.8462376606472,-46.50331999388163 M529.5292951532991,767.7982414501314 L406.81052080305477,697.0330292768142 M530.2092769328372,23.88594420989557 L406.8462376606472,-46.50331999388163 M529.5292951532991,767.7982414501314 L530.2092769328372,23.88594420989557 M522.7119638294412,779.6062056750841 L400,708.8291973337099 M277.2880361705588,779.6062056750841 L400,850.5249097288533 M400,850.5249097288533 L522.7119638294412,779.6062056750841 M277.2880361705588,779.6062056750841 L277.2880361705588,779.6062056750841 M277.2880361705588,779.6062056750841 L275.76932914493136,780.2846874516997 M275.76932914493136,780.2846874516997 L274.3263867161741,780.5344233591723 M274.3263867161741,780.5344233591723 L273.03156560294497,780.3428695616469 M273.03156560294497,780.3428695616469 L271.949789820971,779.71961404638 M271.949789820971,779.71961404638 L271.1353319639617,778.6958791520178 M271.1353319639617,778.6958791520178 L270.62903461204604,777.3229914290008 M270.62903461204604,777.3229914290008 L270.45631110349024,775.6697802194936 M276.6300631741542,19.844432487786435 L276.6300631741542,19.844432487786435 M276.6300631741542,19.844432487786435 L275.10355352769716,20.915011059931317 M275.10355352769716,20.915011059931317 L273.6539112327303,22.330925309725103 M273.6539112327303,22.330925309725103 L272.353848715379,24.021171473759637 M272.353848715379,24.021171473759637 L271.26856373641704,25.900924998511528 M271.26856373641704,25.900924998511528 L270.4525051097066,27.87593856984597 M270.4525051097066,27.87593856984597 L269.9465848392906,29.847173239590234 M269.9465848392906,29.847173239590234 L269.7761777949406,31.715710193837708 M270.45631110349024,775.6697802194936 L393.17508543773965,846.5924320902767 M269.7761777949406,31.715710193837708 L393.1392170507972,102.26240075495923 M393.17508543773965,846.5924320902767 L393.1392170507972,102.26240075495923 M522.7119638294412,779.6062056750841 L524.2275993430087,778.5330112385125 M524.2275993430087,778.5330112385125 L525.6675547600682,777.1189202703529 M525.6675547600682,777.1189202703529 L526.9596386539575,775.4348355181397 M526.9596386539575,775.4348355181397 L528.0390866829729,773.5651819581713 M528.0390866829729,773.5651819581713 L528.8517679412046,771.6036992674325 M528.8517679412046,771.6036992674325 L529.3569513901351,769.6487137467648 M529.3569513901351,769.6487137467648 L529.5292951532991,767.7982414501314 M523.3699368258457,19.844432487786435 L524.8933419508118,19.172822989397446 M524.8933419508118,19.172822989397446 L526.3399652336852,18.933894214006386 M526.3399652336852,18.933894214006386 L527.6372613964866,19.139615597386523 M527.6372613964866,19.139615597386523 L528.720194104083,19.779585479513116 M528.720194104083,19.779585479513116 L529.5344577303817,20.821742114231085 M529.5344577303817,20.821742114231085 L530.0392529294528,22.21381383793704 M530.0392529294528,22.21381383793704 L530.2092769328372,23.88594420989557 M523.3699368258457,19.844432487786435 L400,-50.54862768281447 M529.5436888965098,775.6697802194938 L530.2238222050594,31.715710193837708 M529.5436888965098,775.6697802194938 L530.8881113046102,774.6952166818218 M530.8881113046102,774.6952166818218 L531.8228378551516,773.5721782593882 M531.8228378551516,773.5721782593882 L532.3010174110143,772.3569966678886 M532.3010174110143,772.3569966678886 L532.298689651558,771.1105986346518 M532.298689651558,771.1105986346518 L531.8159962687066,769.8955014902065 M531.8159962687066,769.8955014902065 L530.8771688051115,768.7726152366204 M530.8771688051115,768.7726152366204 L529.5292951532991,767.7982414501314 M530.2238222050594,31.715710193837708 L531.5752936281775,30.74631798727063 M531.5752936281775,30.74631798727063 L532.5149166051045,29.629238922577883 M532.5149166051045,29.629238922577883 L532.9955946585785,28.420505852255133 M532.9955946585785,28.420505852255133 L532.9932423938158,27.180722220525354 M532.9932423938158,27.180722220525354 L532.5080029943908,25.97207359010082 M532.5080029943908,25.97207359010082 L531.5642359323672,24.85514668135977 M531.5642359323672,24.85514668135977 L530.2092769328372,23.88594420989557 M400,850.5249097288533 L398.48146236201126,851.2050471639438 M398.48146236201126,851.2050471639438 L397.0390226449343,851.4561583972998 M397.0390226449343,851.4561583972998 L395.7450123748118,851.2656305974815 M395.7450123748118,851.2656305974815 L394.6643149309876,850.6430002758682 M394.6643149309876,850.6430002758682 L393.85114885963804,849.6194583603516 M393.85114885963804,849.6194583603516 L393.34629198765793,848.2463217023674 M393.34629198765793,848.2463217023674 L393.17508543773965,846.5924320902767 M400,850.5249097288533 L401.5185376379888,851.2050471639438 M401.5185376379888,851.2050471639438 L402.96097735506584,851.4561583972998 M402.96097735506584,851.4561583972998 L404.2549876251883,851.2656305974815 M404.2549876251883,851.2656305974815 L405.33568506901247,850.6430002758682 M405.33568506901247,850.6430002758682 L406.148851140362,849.6194583603516 M406.148851140362,849.6194583603516 L406.6537080123421,848.2463217023674 M406.6537080123421,848.2463217023674 L406.82491456226035,846.5924320902767 M406.82491456226035,846.5924320902767 L529.5436888965098,775.6697802194938 M522.7119638294412,779.6062056750841 L524.2306708550686,780.2846874516997 M524.2306708550686,780.2846874516997 L525.673613283826,780.5344233591723 M525.673613283826,780.5344233591723 L526.968434397055,780.342869561647 M526.968434397055,780.342869561647 L528.050210179029,779.71961404638 M528.050210179029,779.71961404638 L528.8646680360383,778.6958791520178 M528.8646680360383,778.6958791520178 L529.3709653879541,777.3229914290008 M529.3709653879541,777.3229914290008 L529.5436888965098,775.6697802194938 M276.6300631741542,19.844432487786435 L400,90.37917610723792 M400,90.37917610723792 L398.4733160420512,91.45161076296188 M398.4733160420512,91.45161076296188 L397.02316260447196,92.86949186336216 M397.02316260447196,92.86949186336216 L395.7222777549347,94.56171699079573 M395.7222777549347,94.56171699079573 L394.6359005621176,96.44336230045053 M394.6359005621176,96.44336230045053 L393.8185345970483,98.4200855759467 M393.8185345970483,98.4200855759467 L393.3111574323798,100.39276211991279 M393.3111574323798,100.39276211991279 L393.1392170507972,102.26240075495923 M400,90.37917610723792 L401.5266839579488,91.45161076296188 M401.5266839579488,91.45161076296188 L402.97683739552804,92.86949186336216 M402.97683739552804,92.86949186336216 L404.27772224506526,94.56171699079573 M404.27772224506526,94.56171699079573 L405.3640994378824,96.44336230045053 M405.3640994378824,96.44336230045053 L406.1814654029517,98.4200855759467 M406.1814654029517,98.4200855759467 L406.68884256762016,100.39276211991279 M406.68884256762016,100.39276211991279 L406.86078294920276,102.26240075495923 M400,90.37917610723792 L523.3699368258457,19.844432487786435 M406.86078294920276,102.26240075495923 L530.2238222050594,31.715710193837708 M523.3699368258457,19.844432487786435 L524.896446472303,20.915011059931317 M524.896446472303,20.915011059931317 L526.3460887672696,22.330925309725103 M526.3460887672696,22.330925309725103 L527.6461512846209,24.021171473759637 M527.6461512846209,24.021171473759637 L528.731436263583,25.900924998511528 M528.731436263583,25.900924998511528 L529.5474948902934,27.87593856984597 M529.5474948902934,27.87593856984597 L530.0534151607094,29.847173239590234 M530.0534151607094,29.847173239590234 L530.2238222050594,31.715710193837708 M393.17508543773965,846.5924320902767 L394.8648296118208,847.3711965722148 M394.8648296118208,847.3711965722148 L396.8121261993174,847.9131445952418 M396.8121261993174,847.9131445952418 L398.9193025494746,848.1910918620549 M398.9193025494746,848.1910918620549 L401.0806974505254,848.1910918620549 M401.0806974505254,848.1910918620549 L403.1878738006826,847.9131445952418 M403.1878738006826,847.9131445952418 L405.13517038817923,847.3711965722148 M405.13517038817923,847.3711965722148 L406.82491456226035,846.5924320902767 M393.1392170507972,102.26240075495923 L394.8378413894525,103.03704111899839 M394.8378413894525,103.03704111899839 L396.7953719922589,103.57611919032257 M396.7953719922589,103.57611919032257 L398.9136228076391,103.85259457036142 M398.9136228076391,103.85259457036142 L401.0863771923608,103.85259457036142 M401.0863771923608,103.85259457036142 L403.20462800774106,103.57611919032257 M403.20462800774106,103.57611919032257 L405.16215861054746,103.03704111899839 M405.16215861054746,103.03704111899839 L406.86078294920276,102.26240075495923 M406.82491456226035,846.5924320902767 L406.86078294920276,102.26240075495923 M522.7119638294412,779.6062056750841 L522.7119638294412,779.6062056750841 M523.3699368258457,19.844432487786435 L523.3699368258457,19.844432487786435 M400,850.5249097288533 L400,850.5249097288533 M400,90.37917610723792 L400,90.37917610723792" stroke="black"  stroke-width="4"  fill="red"/></svg>