<svg viewBox="0 0 800 800" xmlns="http://www.w3.org/2000/svg"><path d="M376.42648505882056,195.65769850914336 L376.4212505712129,86.68865508080671 M376.42648505882056,195.65769850914336 L-48.34468066629245,440.6000215301937 M376.4212505712129,86.68865508080671 L-48.44433496295096,331.57642856364714 M-48.34468066629245,440.6000215301937 L-48.44433496295096,331.57642856364714 M376.42648505882056,195.65769850914336 L382.2633149657746,192.9735481741174 M382.2633149657746,192.9735481741174 L388.9893721180519,191.10569739626692 M388.9893721180519,191.10569739626692 L396.2673979427022,190.1477604635316 M396.2673979427022,190.1477604635316 L403.73260205729787,190.1477604635316 M403.73260205729787,190.1477604635316 L411.0106278819481,191.10569739626692 M411.0106278819481,191.10569739626692 L417.73668503422545,192.9735481741174 M417.73668503422545,192.9735481741174 L423.57351494117944,195.65769850914336 M376.4212505712129,86.68865508080671 L382.25937658659683,84.00510311814651 M382.25937658659683,84.00510311814651 L388.98692725889447,82.13766874430996 M388.98692725889447,82.13766874430996 L396.26656913886643,81.1799453689801 M396.26656913886643,81.1799453689801 L403.7334308611337,81.1799453689801 M403.7334308611337,81.1799453689801 L411.01307274110553,82.13766874430996 M411.01307274110553,82.13766874430996 L417.7406234134032,84.00510311814651 M417.7406234134032,84.00510311814651 L423.5787494287872,86.68865508080671 M423.57351494117944,195.65769850914336 L423.5787494287872,86.68865508080671 M400,236.4882241002503 L394.75445941341,232.77993087402058 M394.75445941341,232.77993087402058 L389.77202697349367,227.8920417738533 M389.77202697349367,227.8920417738533 L385.302494412914,222.0696363932662 M385.302494412914,222.0696363932662 L381.5698923562495,215.60459824765036 M381.5698923562495,215.60459824765036 L378.7613990914382,208.82106796025877 M378.7613990914382,208.82106796025877 L377.01777437933396,202.0590942299922 M377.01777437933396,202.0590942299922 L376.42648505882056,195.65769850914336 M400,236.4882241002503 L-24.747592210171774,481.4713776468917 M-24.747592210171774,481.4713776468917 L-29.99371911553868,477.75668888564996 M-29.99371911553868,477.75668888564996 L-34.97789162162036,472.8620419812393 M-34.97789162162036,472.8620419812393 L-39.45023079488817,467.03285531306216 M-39.45023079488817,467.03285531306216 L-43.186565353738104,460.56135226575077 M-43.186565353738104,460.56135226575077 L-45.99952993270949,453.77199755204754 M-45.99952993270949,453.77199755204754 L-47.74814063749733,447.0051317404669 M-47.74814063749733,447.0051317404669 L-48.34468066629245,440.6000215301937 M400,73.03011065790417 L394.75272669182743,70.6888995980757 M394.75272669182743,70.6888995980757 L389.76873248600805,69.83164557264308 M389.76873248600805,69.83164557264308 L385.297954764704,70.50129555750397 M385.297954764704,70.50129555750397 L381.56452392512875,72.66414125833995 M381.56452392512875,72.66414125833995 L378.7556597982471,76.2117128222178 M378.7556597982471,76.2117128222178 L377.01210332587027,80.96602187065861 M377.01210332587027,80.96602187065861 L376.4212505712129,86.68865508080671 M400,73.03011065790417 L-24.88922195082216,317.9314398675065 M-24.88922195082216,317.9314398675065 L-30.135897921090077,315.584517113692 M-30.135897921090077,315.584517113692 L-35.11814059190499,314.7225225034475 M-35.11814059190499,314.7225225034475 L-39.58610044726464,315.3886406561156 M-39.58610044726464,315.3886406561156 L-43.31578849515677,317.54934018940304 M-43.31578849515677,317.54934018940304 L-46.120172645628486,321.0962587942454 M-46.120172645628486,321.0962587942454 L-47.858736690671776,325.8514406357613 M-47.858736690671776,325.8514406357613 L-48.44433496295096,331.57642856364714 M-48.34468066629245,440.6000215301937 L-53.01012705264998,443.9726586130707 M-53.01012705264998,443.9726586130707 L-56.25972629479912,447.85934755237884 M-56.25972629479912,447.85934755237884 L-57.930491277640044,452.06520955880796 M-57.930491277640044,452.06520955880796 L-57.93854844006728,456.3794145232776 M-57.93854844006728,456.3794145232776 L-56.28340733842958,460.58556882951206 M-56.28340733842958,460.58556882951206 L-53.04800274275988,464.4727844766439 M-53.04800274275988,464.4727844766439 L-48.39450227765667,467.8460783525153 M-48.44433496295096,331.57642856364714 L-53.11081973096759,334.9483153071245 M-53.11081973096759,334.9483153071245 L-56.36114288468639,338.8341395670946 M-56.36114288468639,338.8341395670946 L-58.03228098853117,343.0390659179737 M-58.03228098853117,343.0390659179737 L-58.04034173331269,347.3523111577311 M-58.04034173331269,347.3523111577311 L-56.3848344573197,351.5575298083504 M-56.3848344573197,351.5575298083504 L-53.14871226126644,355.44388077602713 M-53.14871226126644,355.44388077602713 L-48.494178725867755,358.81642431235286 M-48.39450227765667,467.8460783525153 L-48.494178725867755,358.81642431235286 M400,236.4882241002503 L400,236.4882241002503 M400,236.4882241002503 L405.24554058659,232.77993087402058 M405.24554058659,232.77993087402058 L410.22797302650633,227.8920417738533 M410.22797302650633,227.8920417738533 L414.6975055870861,222.0696363932662 M414.6975055870861,222.0696363932662 L418.43010764375055,215.60459824765036 M418.43010764375055,215.60459824765036 L421.23860090856186,208.82106796025877 M421.23860090856186,208.82106796025877 L422.98222562066604,202.0590942299922 M422.98222562066604,202.0590942299922 L423.57351494117944,195.65769850914336 M400,73.03011065790417 L400,73.03011065790417 M400,73.03011065790417 L405.24727330817257,70.6888995980757 M405.24727330817257,70.6888995980757 L410.2312675139919,69.83164557264308 M410.2312675139919,69.83164557264308 L414.70204523529605,70.50129555750397 M414.70204523529605,70.50129555750397 L418.43547607487125,72.66414125833995 M418.43547607487125,72.66414125833995 L421.2443402017529,76.2117128222178 M421.2443402017529,76.2117128222178 L422.9878966741298,80.96602187065861 M422.9878966741298,80.96602187065861 L423.5787494287872,86.68865508080671 M848.3446806662926,440.60002153019377 L423.57351494117944,195.65769850914336 M848.444334962951,331.57642856364726 L423.5787494287872,86.68865508080671 M848.3446806662926,440.60002153019377 L848.444334962951,331.57642856364726 M824.7475922101719,481.47137764689177 L400,236.4882241002503 M-24.747592210171774,481.4713776468917 L400.00000000000006,726.9449879573904 M400.00000000000006,726.9449879573904 L824.7475922101719,481.47137764689177 M-24.747592210171774,481.4713776468917 L-24.747592210171774,481.4713776468917 M-24.747592210171774,481.4713776468917 L-30.00435065716823,483.81983245099354 M-30.00435065716823,483.81983245099354 L-34.99886222055903,484.68425285530554 M-34.99886222055903,484.68425285530554 L-39.48067583533731,484.02122040322394 M-39.48067583533731,484.02122040322394 L-43.225067534123696,481.8639223600654 M-43.225067534123696,481.8639223600654 L-46.0441815220816,478.3204297952638 M-46.0441815220816,478.3204297952638 L-47.796647821679414,473.5684012519273 M-47.796647821679414,473.5684012519273 L-48.39450227765667,467.8460783525153 M-24.88922195082216,317.9314398675065 L-24.88922195082216,317.9314398675065 M-24.88922195082216,317.9314398675065 L-30.146536494675786,321.6456545137534 M-30.146536494675786,321.6456545137534 L-35.13912471635871,326.5409188919488 M-35.13912471635871,326.5409188919488 L-39.61656431733138,332.37174945467336 M-39.61656431733138,332.37174945467336 L-43.35431313251513,338.8456942656843 M-43.35431313251513,338.8456942656843 L-46.16484839595529,345.6380455165324 M-46.16484839595529,345.6380455165324 L-47.90726784215116,352.4081435871622 M-47.90726784215116,352.4081435871622 L-48.494178725867755,358.81642431235286 M-48.39450227765667,467.8460783525153 L376.37666339209284,713.3333533923421 M-48.494178725867755,358.81642431235286 L376.3714067528832,604.2491496930475 M376.37666339209284,713.3333533923421 L376.3714067528832,604.2491496930475 M824.7475922101719,481.47137764689177 L829.9937191155386,477.7566888856501 M829.9937191155386,477.7566888856501 L834.9778916216203,472.8620419812393 M834.9778916216203,472.8620419812393 L839.4502307948883,467.03285531306216 M839.4502307948883,467.03285531306216 L843.1865653537382,460.5613522657508 M843.1865653537382,460.5613522657508 L845.9995299327097,453.7719975520476 M845.9995299327097,453.7719975520476 L847.7481406374975,447.00513174046694 M847.7481406374975,447.00513174046694 L848.3446806662926,440.60002153019377 M824.889221950822,317.9314398675066 L830.13589792109,315.5845171136921 M830.13589792109,315.5845171136921 L835.1181405919051,314.72252250344764 M835.1181405919051,314.72252250344764 L839.5861004472647,315.38864065611574 M839.5861004472647,315.38864065611574 L843.3157884951568,317.54934018940304 M843.3157884951568,317.54934018940304 L846.1201726456286,321.0962587942454 M846.1201726456286,321.0962587942454 L847.8587366906718,325.85144063576143 M847.8587366906718,325.85144063576143 L848.444334962951,331.57642856364726 M824.889221950822,317.9314398675066 L400,73.03011065790417 M848.3945022776568,467.84607835251535 L848.4941787258676,358.8164243123529 M848.3945022776568,467.84607835251535 L853.04800274276,464.47278447664394 M853.04800274276,464.47278447664394 L856.2834073384295,460.58556882951217 M856.2834073384295,460.58556882951217 L857.9385484400673,456.37941452327766 M857.9385484400673,456.37941452327766 L857.9304912776402,452.0652095588081 M857.9304912776402,452.0652095588081 L856.2597262947991,447.85934755237884 M856.2597262947991,447.85934755237884 L853.0101270526498,443.9726586130708 M853.0101270526498,443.9726586130708 L848.3446806662926,440.60002153019377 M848.4941787258676,358.8164243123529 L853.1487122612664,355.44388077602724 M853.1487122612664,355.44388077602724 L856.3848344573196,351.55752980835047 M856.3848344573196,351.55752980835047 L858.0403417333127,347.3523111577311 M858.0403417333127,347.3523111577311 L858.0322809885313,343.03906591797374 M858.0322809885313,343.03906591797374 L856.3611428846866,338.8341395670947 M856.3611428846866,338.8341395670947 L853.1108197309677,334.9483153071246 M853.1108197309677,334.9483153071246 L848.444334962951,331.57642856364726 M400.00000000000006,726.9449879573904 L394.7438278608861,729.2991735552043 M394.7438278608861,729.2991735552043 L389.75105635257313,730.1683544273569 M389.75105635257313,730.1683544273569 L385.27204933990987,729.5088733001996 M385.27204933990987,729.5088733001996 L381.53139013401517,727.353739263637 M381.53139013401517,727.353739263637 L378.7167474529415,723.8109146638601 M378.7167474529415,723.8109146638601 L376.9692671413855,719.058024472444 M376.9692671413855,719.058024472444 L376.37666339209284,713.3333533923421 M400.00000000000006,726.9449879573904 L405.256172139114,729.2991735552043 M405.256172139114,729.2991735552043 L410.2489436474269,730.1683544273569 M410.2489436474269,730.1683544273569 L414.72795066009024,729.5088733001996 M414.72795066009024,729.5088733001996 L418.4686098659849,727.353739263637 M418.4686098659849,727.353739263637 L421.28325254705857,723.8109146638601 M421.28325254705857,723.8109146638601 L423.0307328586146,719.058024472444 M423.0307328586146,719.058024472444 L423.6233366079072,713.3333533923421 M423.6233366079072,713.3333533923421 L848.3945022776568,467.84607835251535 M824.7475922101719,481.47137764689177 L830.0043506571683,483.81983245099354 M830.0043506571683,483.81983245099354 L834.998862220559,484.6842528553056 M834.998862220559,484.6842528553056 L839.4806758353373,484.02122040322394 M839.4806758353373,484.02122040322394 L843.2250675341238,481.86392236006554 M843.2250675341238,481.86392236006554 L846.0441815220815,478.3204297952638 M846.0441815220815,478.3204297952638 L847.7966478216795,473.5684012519273 M847.7966478216795,473.5684012519273 L848.3945022776568,467.84607835251535 M-24.88922195082216,317.9314398675065 L400,563.3232256776622 M400,563.3232256776622 L394.7420881073329,567.043854956017 M394.7420881073329,567.043854956017 L389.7477483395442,571.9458970219114 M389.7477483395442,571.9458970219114 L385.26749086204194,577.7835283685749 M385.26749086204194,577.7835283685749 L381.5259992458729,584.2639559270401 M381.5259992458729,584.2639559270401 L378.7109839987424,591.0621466196587 M378.7109839987424,591.0621466196587 L376.96357212057126,597.8371479282637 M376.96357212057126,597.8371479282637 L376.3714067528832,604.2491496930475 M400,563.3232256776622 L405.25791189266715,567.043854956017 M405.25791189266715,567.043854956017 L410.2522516604559,571.9458970219114 M410.2522516604559,571.9458970219114 L414.7325091379581,577.7835283685749 M414.7325091379581,577.7835283685749 L418.4740007541271,584.2639559270401 M418.4740007541271,584.2639559270401 L421.28901600125766,591.0621466196587 M421.28901600125766,591.0621466196587 L423.03642787942886,597.8371479282637 M423.03642787942886,597.8371479282637 L423.6285932471168,604.2491496930475 M400,563.3232256776622 L824.889221950822,317.9314398675066 M423.6285932471168,604.2491496930475 L848.4941787258676,358.8164243123529 M824.889221950822,317.9314398675066 L830.1465364946757,321.6456545137535 M830.1465364946757,321.6456545137535 L835.1391247163588,326.5409188919489 M835.1391247163588,326.5409188919489 L839.6165643173315,332.3717494546735 M839.6165643173315,332.3717494546735 L843.3543131325152,338.8456942656843 M843.3543131325152,338.8456942656843 L846.1648483959555,345.63804551653243 M846.1648483959555,345.63804551653243 L847.9072678421514,352.4081435871622 M847.9072678421514,352.4081435871622 L848.4941787258676,358.8164243123529 M376.37666339209284,713.3333533923421 L382.22543923264334,716.0289205422719 M382.22543923264334,716.0289205422719 L388.96569104711074,717.9047858670558 M388.96569104711074,717.9047858670558 L396.2593407709101,718.8668553234975 M396.2593407709101,718.8668553234975 L403.74065922908994,718.8668553234975 M403.74065922908994,718.8668553234975 L411.0343089528894,717.9047858670558 M411.0343089528894,717.9047858670558 L417.7745607673568,716.0289205422719 M417.7745607673568,716.0289205422719 L423.6233366079072,713.3333533923421 M376.3714067528832,604.2491496930475 L382.22148401323847,606.9441184680836 M382.22148401323847,606.9441184680836 L388.9632356589263,608.8195673870796 M388.9632356589263,608.8195673870796 L396.2585083847119,609.7814232852008 M396.2585083847119,609.7814232852008 L403.7414916152882,609.7814232852008 M403.7414916152882,609.7814232852008 L411.03676434107376,608.8195673870796 M411.03676434107376,608.8195673870796 L417.77851598676165,606.9441184680836 M417.77851598676165,606.9441184680836 L423.6285932471168,604.2491496930475 M423.6233366079072,713.3333533923421 L423.6285932471168,604.2491496930475 M824.7475922101719,481.47137764689177 L824.7475922101719,481.47137764689177 M824.889221950822,317.9314398675066 L824.889221950822,317.9314398675066 M400.00000000000006,726.9449879573904 L400.00000000000006,726.9449879573904 M400,563.3232256776622 L400,563.3232256776622" stroke="black"  stroke-width="4"  fill="red"/></svg>